<mxfile host="app.diagrams.net" agent="Mozilla/5.0 (X11; Linux x86_64) AppleWebKit/537.36 (KHTML, like Gecko) Chrome/135.0.0.0 Safari/537.36" version="26.2.14">
  <diagram name="Page-1" id="HcXCyIpyACKPQqheHaob">
    <mxGraphModel dx="2066" dy="1185" grid="1" gridSize="10" guides="1" tooltips="1" connect="1" arrows="1" fold="1" page="1" pageScale="1" pageWidth="850" pageHeight="1100" math="0" shadow="0">
      <root>
        <mxCell id="0" />
        <mxCell id="1" parent="0" />
        <mxCell id="sLkxtG83bXtka8x5_pqf-32" style="rounded=0;orthogonalLoop=1;jettySize=auto;html=1;strokeWidth=3;" parent="1" source="sLkxtG83bXtka8x5_pqf-1" target="sLkxtG83bXtka8x5_pqf-21" edge="1">
          <mxGeometry relative="1" as="geometry" />
        </mxCell>
        <mxCell id="sLkxtG83bXtka8x5_pqf-34" style="rounded=0;orthogonalLoop=1;jettySize=auto;html=1;strokeWidth=3;" parent="1" source="sLkxtG83bXtka8x5_pqf-1" target="sLkxtG83bXtka8x5_pqf-22" edge="1">
          <mxGeometry relative="1" as="geometry" />
        </mxCell>
        <mxCell id="sLkxtG83bXtka8x5_pqf-37" style="rounded=0;orthogonalLoop=1;jettySize=auto;html=1;strokeWidth=3;" parent="1" source="sLkxtG83bXtka8x5_pqf-1" target="sLkxtG83bXtka8x5_pqf-23" edge="1">
          <mxGeometry relative="1" as="geometry" />
        </mxCell>
        <mxCell id="sLkxtG83bXtka8x5_pqf-1" value="&lt;b&gt;&lt;font style=&quot;font-size: 18px;&quot;&gt;Source&lt;/font&gt;&lt;/b&gt;&lt;div&gt;&lt;b&gt;&lt;font size=&quot;3&quot;&gt;DB&lt;/font&gt;&lt;/b&gt;&lt;/div&gt;" style="shape=cylinder3;whiteSpace=wrap;html=1;boundedLbl=1;backgroundOutline=1;size=15;fillColor=#CCE5FF;strokeWidth=3;" parent="1" vertex="1">
          <mxGeometry x="275" y="740" width="80" height="80" as="geometry" />
        </mxCell>
        <mxCell id="sLkxtG83bXtka8x5_pqf-2" value="&lt;b&gt;&lt;font style=&quot;font-size: 18px;&quot;&gt;Target&lt;/font&gt;&lt;/b&gt;&lt;div&gt;&lt;b&gt;&lt;font size=&quot;3&quot;&gt;DB&lt;/font&gt;&lt;/b&gt;&lt;/div&gt;" style="shape=cylinder3;whiteSpace=wrap;html=1;boundedLbl=1;backgroundOutline=1;size=15;fillColor=#CCE5FF;strokeWidth=3;" parent="1" vertex="1">
          <mxGeometry x="490" y="740" width="80" height="80" as="geometry" />
        </mxCell>
        <mxCell id="sLkxtG83bXtka8x5_pqf-5" style="edgeStyle=orthogonalEdgeStyle;rounded=0;orthogonalLoop=1;jettySize=auto;html=1;strokeWidth=3;" parent="1" source="sLkxtG83bXtka8x5_pqf-3" target="sLkxtG83bXtka8x5_pqf-4" edge="1">
          <mxGeometry relative="1" as="geometry" />
        </mxCell>
        <mxCell id="sLkxtG83bXtka8x5_pqf-3" value="&lt;b&gt;&lt;font style=&quot;font-size: 18px;&quot;&gt;Config&lt;/font&gt;&lt;/b&gt;&lt;div&gt;&lt;b&gt;&lt;font size=&quot;3&quot;&gt;YAML file&lt;/font&gt;&lt;/b&gt;&lt;/div&gt;" style="shape=document;whiteSpace=wrap;html=1;boundedLbl=1;fillColor=#CCCCFF;strokeWidth=3;" parent="1" vertex="1">
          <mxGeometry x="190" y="280" width="120" height="80" as="geometry" />
        </mxCell>
        <mxCell id="sLkxtG83bXtka8x5_pqf-10" style="edgeStyle=orthogonalEdgeStyle;rounded=0;orthogonalLoop=1;jettySize=auto;html=1;strokeWidth=3;" parent="1" source="sLkxtG83bXtka8x5_pqf-4" target="xsBkrrQcDgJFGh55oW8M-1" edge="1">
          <mxGeometry relative="1" as="geometry">
            <mxPoint x="700" y="400" as="targetPoint" />
          </mxGeometry>
        </mxCell>
        <mxCell id="sLkxtG83bXtka8x5_pqf-12" style="edgeStyle=orthogonalEdgeStyle;rounded=0;orthogonalLoop=1;jettySize=auto;html=1;dashed=1;strokeWidth=3;" parent="1" source="sLkxtG83bXtka8x5_pqf-4" target="sLkxtG83bXtka8x5_pqf-9" edge="1">
          <mxGeometry relative="1" as="geometry" />
        </mxCell>
        <mxCell id="sLkxtG83bXtka8x5_pqf-4" value="&lt;font style=&quot;font-size: 18px;&quot;&gt;Parser&lt;/font&gt;" style="rounded=1;whiteSpace=wrap;html=1;fontStyle=1;fillColor=#CCFFFF;strokeWidth=3;" parent="1" vertex="1">
          <mxGeometry x="365" y="290" width="120" height="60" as="geometry" />
        </mxCell>
        <mxCell id="sLkxtG83bXtka8x5_pqf-15" style="edgeStyle=orthogonalEdgeStyle;rounded=0;orthogonalLoop=1;jettySize=auto;html=1;strokeWidth=3;" parent="1" source="sLkxtG83bXtka8x5_pqf-9" target="xsBkrrQcDgJFGh55oW8M-1" edge="1">
          <mxGeometry relative="1" as="geometry">
            <mxPoint x="640" y="440" as="targetPoint" />
            <Array as="points">
              <mxPoint x="550" y="420" />
              <mxPoint x="550" y="420" />
            </Array>
          </mxGeometry>
        </mxCell>
        <mxCell id="sLkxtG83bXtka8x5_pqf-19" style="edgeStyle=orthogonalEdgeStyle;rounded=0;orthogonalLoop=1;jettySize=auto;html=1;dashed=1;strokeWidth=3;" parent="1" source="sLkxtG83bXtka8x5_pqf-9" target="sLkxtG83bXtka8x5_pqf-14" edge="1">
          <mxGeometry relative="1" as="geometry" />
        </mxCell>
        <mxCell id="sLkxtG83bXtka8x5_pqf-24" style="edgeStyle=orthogonalEdgeStyle;rounded=0;orthogonalLoop=1;jettySize=auto;html=1;strokeWidth=3;" parent="1" source="sLkxtG83bXtka8x5_pqf-9" target="sLkxtG83bXtka8x5_pqf-1" edge="1">
          <mxGeometry relative="1" as="geometry">
            <Array as="points">
              <mxPoint x="150" y="440" />
              <mxPoint x="150" y="770" />
            </Array>
            <mxPoint x="270" y="880" as="targetPoint" />
          </mxGeometry>
        </mxCell>
        <mxCell id="sLkxtG83bXtka8x5_pqf-9" value="&lt;b&gt;&lt;font style=&quot;font-size: 18px;&quot;&gt;Planner&lt;/font&gt;&lt;/b&gt;" style="rounded=1;whiteSpace=wrap;html=1;fillColor=#CCFFFF;strokeWidth=3;" parent="1" vertex="1">
          <mxGeometry x="365" y="390" width="120" height="60" as="geometry" />
        </mxCell>
        <mxCell id="sLkxtG83bXtka8x5_pqf-17" style="edgeStyle=orthogonalEdgeStyle;rounded=0;orthogonalLoop=1;jettySize=auto;html=1;startArrow=none;startFill=0;entryX=0.35;entryY=1.038;entryDx=0;entryDy=0;entryPerimeter=0;strokeWidth=3;" parent="1" source="sLkxtG83bXtka8x5_pqf-14" target="xsBkrrQcDgJFGh55oW8M-1" edge="1">
          <mxGeometry relative="1" as="geometry">
            <mxPoint x="700" y="480" as="targetPoint" />
          </mxGeometry>
        </mxCell>
        <mxCell id="sLkxtG83bXtka8x5_pqf-26" style="edgeStyle=orthogonalEdgeStyle;rounded=0;orthogonalLoop=1;jettySize=auto;html=1;dashed=1;strokeWidth=3;" parent="1" source="sLkxtG83bXtka8x5_pqf-14" target="sLkxtG83bXtka8x5_pqf-20" edge="1">
          <mxGeometry relative="1" as="geometry">
            <Array as="points">
              <mxPoint x="425" y="580" />
              <mxPoint x="240" y="580" />
            </Array>
          </mxGeometry>
        </mxCell>
        <mxCell id="sLkxtG83bXtka8x5_pqf-27" style="edgeStyle=orthogonalEdgeStyle;rounded=0;orthogonalLoop=1;jettySize=auto;html=1;dashed=1;strokeWidth=3;" parent="1" source="sLkxtG83bXtka8x5_pqf-14" target="sLkxtG83bXtka8x5_pqf-21" edge="1">
          <mxGeometry relative="1" as="geometry">
            <Array as="points">
              <mxPoint x="425" y="580" />
              <mxPoint x="335" y="580" />
            </Array>
          </mxGeometry>
        </mxCell>
        <mxCell id="sLkxtG83bXtka8x5_pqf-28" style="edgeStyle=orthogonalEdgeStyle;rounded=0;orthogonalLoop=1;jettySize=auto;html=1;dashed=1;strokeWidth=3;" parent="1" source="sLkxtG83bXtka8x5_pqf-14" target="sLkxtG83bXtka8x5_pqf-22" edge="1">
          <mxGeometry relative="1" as="geometry">
            <Array as="points">
              <mxPoint x="425" y="630" />
              <mxPoint x="425" y="630" />
            </Array>
          </mxGeometry>
        </mxCell>
        <mxCell id="sLkxtG83bXtka8x5_pqf-29" style="edgeStyle=orthogonalEdgeStyle;rounded=0;orthogonalLoop=1;jettySize=auto;html=1;dashed=1;strokeWidth=3;" parent="1" source="sLkxtG83bXtka8x5_pqf-14" target="sLkxtG83bXtka8x5_pqf-23" edge="1">
          <mxGeometry relative="1" as="geometry">
            <Array as="points">
              <mxPoint x="425" y="580" />
              <mxPoint x="550" y="580" />
            </Array>
          </mxGeometry>
        </mxCell>
        <mxCell id="sLkxtG83bXtka8x5_pqf-14" value="&lt;b&gt;&lt;font style=&quot;font-size: 18px;&quot;&gt;Orchestrator&lt;/font&gt;&lt;/b&gt;" style="rounded=1;whiteSpace=wrap;html=1;fillColor=#CCFFFF;strokeWidth=3;" parent="1" vertex="1">
          <mxGeometry x="340" y="490" width="170" height="60" as="geometry" />
        </mxCell>
        <mxCell id="sLkxtG83bXtka8x5_pqf-30" style="rounded=0;orthogonalLoop=1;jettySize=auto;html=1;startArrow=classic;startFill=1;endArrow=none;endFill=0;strokeWidth=3;" parent="1" source="sLkxtG83bXtka8x5_pqf-20" target="sLkxtG83bXtka8x5_pqf-1" edge="1">
          <mxGeometry relative="1" as="geometry" />
        </mxCell>
        <mxCell id="sLkxtG83bXtka8x5_pqf-31" style="rounded=0;orthogonalLoop=1;jettySize=auto;html=1;strokeWidth=3;" parent="1" source="sLkxtG83bXtka8x5_pqf-20" target="sLkxtG83bXtka8x5_pqf-2" edge="1">
          <mxGeometry relative="1" as="geometry" />
        </mxCell>
        <mxCell id="kWe1j9rUw_v-mAE_G8S_-13" style="edgeStyle=orthogonalEdgeStyle;rounded=0;orthogonalLoop=1;jettySize=auto;html=1;strokeWidth=3;" parent="1" source="sLkxtG83bXtka8x5_pqf-20" edge="1">
          <mxGeometry relative="1" as="geometry">
            <mxPoint x="90" y="260" as="targetPoint" />
            <Array as="points">
              <mxPoint x="90" y="700" />
            </Array>
          </mxGeometry>
        </mxCell>
        <mxCell id="sLkxtG83bXtka8x5_pqf-20" value="&lt;b&gt;&lt;font style=&quot;font-size: 18px;&quot;&gt;Worker 1&lt;/font&gt;&lt;/b&gt;" style="rounded=1;whiteSpace=wrap;html=1;fillColor=#CCFFFF;strokeWidth=3;" parent="1" vertex="1">
          <mxGeometry x="190" y="620" width="90" height="60" as="geometry" />
        </mxCell>
        <mxCell id="sLkxtG83bXtka8x5_pqf-33" style="rounded=0;orthogonalLoop=1;jettySize=auto;html=1;strokeWidth=3;" parent="1" source="sLkxtG83bXtka8x5_pqf-21" target="sLkxtG83bXtka8x5_pqf-2" edge="1">
          <mxGeometry relative="1" as="geometry" />
        </mxCell>
        <mxCell id="sLkxtG83bXtka8x5_pqf-21" value="&lt;b&gt;&lt;font style=&quot;font-size: 18px;&quot;&gt;Worker 2&lt;/font&gt;&lt;/b&gt;" style="rounded=1;whiteSpace=wrap;html=1;fillColor=#CCFFFF;strokeWidth=3;" parent="1" vertex="1">
          <mxGeometry x="290" y="620" width="90" height="60" as="geometry" />
        </mxCell>
        <mxCell id="sLkxtG83bXtka8x5_pqf-35" style="rounded=0;orthogonalLoop=1;jettySize=auto;html=1;strokeWidth=3;" parent="1" source="sLkxtG83bXtka8x5_pqf-22" target="sLkxtG83bXtka8x5_pqf-2" edge="1">
          <mxGeometry relative="1" as="geometry" />
        </mxCell>
        <mxCell id="sLkxtG83bXtka8x5_pqf-22" value="&lt;b&gt;&lt;font style=&quot;font-size: 18px;&quot;&gt;Worker 3&lt;/font&gt;&lt;/b&gt;" style="rounded=1;whiteSpace=wrap;html=1;fillColor=#CCFFFF;strokeWidth=3;" parent="1" vertex="1">
          <mxGeometry x="390" y="620" width="85" height="60" as="geometry" />
        </mxCell>
        <mxCell id="sLkxtG83bXtka8x5_pqf-38" style="edgeStyle=orthogonalEdgeStyle;rounded=0;orthogonalLoop=1;jettySize=auto;html=1;strokeWidth=3;" parent="1" source="sLkxtG83bXtka8x5_pqf-23" edge="1">
          <mxGeometry relative="1" as="geometry">
            <mxPoint x="540" y="740" as="targetPoint" />
            <Array as="points">
              <mxPoint x="540" y="725" />
              <mxPoint x="541" y="725" />
            </Array>
          </mxGeometry>
        </mxCell>
        <mxCell id="sLkxtG83bXtka8x5_pqf-23" value="&lt;b&gt;&lt;font style=&quot;font-size: 18px;&quot;&gt;Worker 4&lt;/font&gt;&lt;/b&gt;" style="rounded=1;whiteSpace=wrap;html=1;fillColor=#CCFFFF;strokeWidth=3;" parent="1" vertex="1">
          <mxGeometry x="480" y="620" width="90" height="60" as="geometry" />
        </mxCell>
        <mxCell id="sLkxtG83bXtka8x5_pqf-39" value="&lt;b&gt;&lt;font style=&quot;font-size: 18px;&quot;&gt;Worker N&lt;/font&gt;&lt;/b&gt;" style="rounded=1;whiteSpace=wrap;html=1;dashed=1;opacity=50;textOpacity=50;fillColor=#CCFFFF;strokeWidth=3;" parent="1" vertex="1">
          <mxGeometry x="590" y="620" width="90" height="60" as="geometry" />
        </mxCell>
        <mxCell id="sLkxtG83bXtka8x5_pqf-40" value="" style="ellipse;html=1;shape=startState;fillColor=#000000;strokeColor=#ff0000;" parent="1" vertex="1">
          <mxGeometry x="410" y="150" width="30" height="30" as="geometry" />
        </mxCell>
        <mxCell id="sLkxtG83bXtka8x5_pqf-41" value="" style="edgeStyle=orthogonalEdgeStyle;html=1;verticalAlign=bottom;endArrow=open;endSize=8;strokeColor=#000000;rounded=0;dashed=1;entryX=0.5;entryY=0;entryDx=0;entryDy=0;strokeWidth=3;" parent="1" source="sLkxtG83bXtka8x5_pqf-40" target="kWe1j9rUw_v-mAE_G8S_-6" edge="1">
          <mxGeometry relative="1" as="geometry">
            <mxPoint x="425" y="300" as="targetPoint" />
          </mxGeometry>
        </mxCell>
        <mxCell id="xsBkrrQcDgJFGh55oW8M-1" value="&lt;b&gt;&lt;font style=&quot;font-size: 18px;&quot;&gt;Migrator&lt;/font&gt;&lt;/b&gt;&lt;div&gt;&lt;b&gt;&lt;font size=&quot;3&quot;&gt;DB&lt;/font&gt;&lt;/b&gt;&lt;br&gt;&lt;/div&gt;" style="shape=cylinder3;whiteSpace=wrap;html=1;boundedLbl=1;backgroundOutline=1;size=15;fillColor=#CCE5FF;strokeWidth=3;" parent="1" vertex="1">
          <mxGeometry x="660" y="380" width="80" height="80" as="geometry" />
        </mxCell>
        <mxCell id="kWe1j9rUw_v-mAE_G8S_-1" style="edgeStyle=orthogonalEdgeStyle;rounded=0;orthogonalLoop=1;jettySize=auto;html=1;entryX=0.5;entryY=1;entryDx=0;entryDy=0;entryPerimeter=0;strokeWidth=3;" parent="1" source="sLkxtG83bXtka8x5_pqf-23" target="xsBkrrQcDgJFGh55oW8M-1" edge="1">
          <mxGeometry relative="1" as="geometry" />
        </mxCell>
        <mxCell id="kWe1j9rUw_v-mAE_G8S_-7" value="" style="edgeStyle=orthogonalEdgeStyle;rounded=0;orthogonalLoop=1;jettySize=auto;html=1;strokeWidth=3;" parent="1" source="kWe1j9rUw_v-mAE_G8S_-6" target="sLkxtG83bXtka8x5_pqf-4" edge="1">
          <mxGeometry relative="1" as="geometry" />
        </mxCell>
        <mxCell id="kWe1j9rUw_v-mAE_G8S_-6" value="&lt;font style=&quot;font-size: 18px;&quot;&gt;&lt;b&gt;Logger&lt;/b&gt;&lt;/font&gt;" style="rounded=1;whiteSpace=wrap;html=1;fillColor=#CCFFFF;strokeWidth=3;" parent="1" vertex="1">
          <mxGeometry x="365" y="210" width="120" height="30" as="geometry" />
        </mxCell>
        <mxCell id="kWe1j9rUw_v-mAE_G8S_-8" value="&lt;b&gt;&lt;font style=&quot;font-size: 18px;&quot;&gt;Log file&lt;/font&gt;&lt;/b&gt;" style="shape=document;whiteSpace=wrap;html=1;boundedLbl=1;fillColor=#CCCCFF;strokeWidth=3;" parent="1" vertex="1">
          <mxGeometry x="60" y="195" width="120" height="60" as="geometry" />
        </mxCell>
        <mxCell id="kWe1j9rUw_v-mAE_G8S_-9" style="edgeStyle=orthogonalEdgeStyle;rounded=0;orthogonalLoop=1;jettySize=auto;html=1;entryX=1;entryY=0.5;entryDx=0;entryDy=0;strokeWidth=3;" parent="1" source="kWe1j9rUw_v-mAE_G8S_-6" target="kWe1j9rUw_v-mAE_G8S_-8" edge="1">
          <mxGeometry relative="1" as="geometry">
            <mxPoint x="180" y="225" as="targetPoint" />
          </mxGeometry>
        </mxCell>
        <mxCell id="kWe1j9rUw_v-mAE_G8S_-11" style="edgeStyle=orthogonalEdgeStyle;rounded=0;orthogonalLoop=1;jettySize=auto;html=1;entryX=0.767;entryY=0.717;entryDx=0;entryDy=0;entryPerimeter=0;exitX=0;exitY=0.25;exitDx=0;exitDy=0;strokeWidth=3;" parent="1" source="sLkxtG83bXtka8x5_pqf-9" target="kWe1j9rUw_v-mAE_G8S_-8" edge="1">
          <mxGeometry relative="1" as="geometry" />
        </mxCell>
        <mxCell id="kWe1j9rUw_v-mAE_G8S_-15" style="edgeStyle=orthogonalEdgeStyle;rounded=0;orthogonalLoop=1;jettySize=auto;html=1;entryX=0.567;entryY=0.833;entryDx=0;entryDy=0;entryPerimeter=0;strokeWidth=3;exitX=0;exitY=0.25;exitDx=0;exitDy=0;" parent="1" edge="1" source="sLkxtG83bXtka8x5_pqf-14">
          <mxGeometry relative="1" as="geometry">
            <mxPoint x="358" y="520" as="sourcePoint" />
            <mxPoint x="126.03999999999996" y="244.98000000000002" as="targetPoint" />
            <Array as="points">
              <mxPoint x="340" y="540" />
              <mxPoint x="127" y="540" />
            </Array>
          </mxGeometry>
        </mxCell>
      </root>
    </mxGraphModel>
  </diagram>
</mxfile>
